<?xml version="1.0" encoding="utf-8"?>
<svg version="1.1" id="Calque_1" xmlns="http://www.w3.org/2000/svg" xmlns:xlink="http://www.w3.org/1999/xlink" x="0px" y="0px"
	 viewBox="0 0 456 322" style="enable-background:new 0 0 456 322;" xml:space="preserve">
<g>
	<defs>
		<path id="BG" d="M12.2,3.7C7.2,3.9,4,6.2,4,11.1l0,0v219.6c0,3.8,2.7,7.3,7,7.3l0,0h391.9c3.5,0,6.3-0.3,8-5l0,0
			c0,0,39.7-124.3,40.4-126.6l0,0c1.5-4.7,0.5-7.1-3.5-9.6l0,0C320.2,15,129.3,3.2,42.6,3.2l0,0C30.2,3.2,19.9,3.4,12.2,3.7"/>
	</defs>
	<clipPath id="BG_1_">
		<use xlink:href="#BG"  style="overflow:visible;"/>
	</clipPath>
	<linearGradient id="SVGID_1_" gradientUnits="userSpaceOnUse" x1="4" y1="120.5" x2="452" y2="120.5">
		<stop  offset="0" style="stop-color:#7C2270"/>
		<stop  offset="0.2472" style="stop-color:#AA147E"/>
		<stop  offset="0.8146" style="stop-color:#E41D25"/>
		<stop  offset="1" style="stop-color:#E41D25"/>
	</linearGradient>
	<rect x="4" y="3" style="clip-path:url(#BG_1_);fill:url(#SVGID_1_);" width="448" height="235"/>
</g>
<path id="SNCF" style="fill:#FFFFFF;" d="M253.7,176.7c-5.5-6.4-7.7-14.6-6.3-23.8c3.2-21.9,24.6-35.8,53.1-35.8
	c6,0,12.2,0.4,17.8,1.1l5.6-16.5c-6.9-1.1-15.2-1.5-23.4-1.5c-25.3,0-47.3,8.7-61.6,24.1c-0.4,0.5-0.9,0.5-1.2,0.5
	c-0.4,0-0.7-0.1-0.6-0.5l7.1-22.4h-20.9l-22.9,71.7c-7.3-21.2-22.3-49-40.6-71.7h-22.4L120.8,154c8.4,6.3,11.1,10.8,13.3,17.2
	c0.1,0.4,0.4,0.5,0.8,0.5c0.4,0,0.6-0.1,0.7-0.5c0.2-0.5,14.6-45.4,14.6-45.4c14.8,21.1,29.4,48.9,37.3,78.3h24.1l11.9-37.2
	c0.1-0.4,0.4-0.5,0.8-0.5c0.4,0,0.7,0.1,0.7,0.5c3.6,23.3,26.8,39,59.7,39c21.3,0,40.5-5.6,45.3-8.1l12.5-39.3h47.9l4.9-15.2h-47.9
	l8.3-25.8h57.1l5-15.8h-80.2l-27.2,85.1c-5.8,1.5-12.9,2.2-20.4,2.2C273.9,189,261,185.2,253.7,176.7 M118.6,117.5l4.8-15
	c-6.8-1.3-11.7-1.9-19.9-2.1c-26.3-0.6-50,6.6-56.1,22c-7.2,18.2,13.3,28.4,31.1,36.9c14.1,6.7,25.3,13.1,21.4,21.4
	c-3.1,6.5-13,9.5-27.6,9.2c-12.6-0.3-28.3-3.9-40.7-10.1l-7.4,15.9c9.1,4.2,27.9,10,43.9,10.3c30.1,0.7,49.5-6.9,57.3-23.2
	c9.2-19.4-13.7-30-32-38.8c-14.4-6.9-24.2-10.6-21.8-17.6c2.8-8.3,17.3-11.4,30.4-11.1C108.5,115.4,113.2,116.2,118.6,117.5"/>
<g id="Réseau">
	<g>
		<path style="fill:#7C2270;" d="M27.1,273h15.4c8.2,0,15.1,2.8,15.1,12.1c0,5.6-3,9.9-8.6,10.9l10.1,16.9H48.6l-8.3-16H36v16h-8.8
			V273H27.1z M35.9,289.5h5.2c3.2,0,7.4-0.1,7.4-4.5c0-4-3.6-4.6-6.8-4.6h-5.8C35.9,280.4,35.9,289.5,35.9,289.5z"/>
		<path style="fill:#7C2270;" d="M93,273h27.1v8.1h-18.3v7.4h17.3v8.1h-17.3v8.1h19.3v8.1H93V273z M106.4,262h11.5l-9.8,8.1h-7.4
			L106.4,262z"/>
		<path style="fill:#7C2270;" d="M176.9,282.7c-1.4-1.8-4.2-2.6-6.4-2.6c-2.5,0-5.9,1.1-5.9,4.1c0,7.3,18.4,2.6,18.4,16.6
			c0,8.9-7.2,13.1-15.4,13.1c-5.1,0-9.6-1.5-13.4-5l6.3-6.9c1.8,2.4,4.7,3.8,7.7,3.8c2.9,0,6.1-1.4,6.1-4.2
			c0-7.3-18.7-3.4-18.7-16.7c0-8.5,7.4-13,15.2-13c4.5,0,8.9,1.2,12.2,4.2L176.9,282.7z"/>
		<path style="fill:#7C2270;" d="M218.9,273H246v8.1h-18.3v7.4H245v8.1h-17.3v8.1H247v8.1h-28.1V273z"/>
		<path style="fill:#7C2270;" d="M296.3,273h7.3l17.4,39.9h-10l-3.4-8.5h-15.5l-3.3,8.5H279L296.3,273z M299.7,284.6l-4.8,12.4h9.8
			L299.7,284.6z"/>
		<path style="fill:#7C2270;" d="M387.6,297.5c0,9.4-5.8,16.4-16.8,16.4c-11.1,0-16.9-7-16.9-16.4V273h8.8v24.2
			c0,4.9,3.4,8.6,8.1,8.6c4.6,0,8-3.7,8-8.6V273h8.8V297.5z"/>
	</g>
</g>
</svg>
